<svg id="svg" version="1.1" xmlns="http://www.w3.org/2000/svg" xmlns:xlink="http://www.w3.org/1999/xlink" width="400" height="374.1463414634147" viewBox="0, 0, 400,374.1463414634147"><g id="svgg"><path id="path0" d="M184.698 20.591 C 181.130 21.671,180.448 25.878,183.287 29.299 C 183.494 29.548,183.787 30.256,183.938 30.872 C 184.090 31.488,184.608 32.579,185.091 33.295 C 185.573 34.012,185.968 34.791,185.968 35.027 C 185.968 35.263,186.210 35.656,186.505 35.901 C 186.801 36.147,187.156 36.883,187.295 37.538 C 187.434 38.192,187.754 38.980,188.006 39.289 C 188.258 39.598,188.688 40.440,188.962 41.160 C 189.235 41.880,189.684 42.735,189.959 43.060 C 190.234 43.385,190.458 43.867,190.458 44.132 C 190.458 44.396,190.773 45.225,191.158 45.973 C 191.542 46.722,192.030 47.755,192.242 48.269 C 193.369 51.006,195.128 55.007,196.108 57.063 C 196.500 57.886,196.821 58.772,196.820 59.032 C 196.819 59.510,196.964 59.851,198.076 61.985 C 198.414 62.634,198.690 63.413,198.690 63.716 C 198.690 64.020,198.921 64.459,199.204 64.694 C 199.486 64.928,199.809 65.687,199.922 66.381 C 200.034 67.074,200.561 68.592,201.092 69.753 C 201.623 70.915,202.058 72.075,202.058 72.332 C 202.058 72.589,202.297 73.140,202.588 73.556 C 202.880 73.973,203.239 74.978,203.385 75.791 C 203.531 76.604,203.865 77.689,204.126 78.204 C 204.387 78.718,204.817 79.897,205.081 80.823 C 205.344 81.749,205.677 82.675,205.820 82.881 C 205.962 83.087,206.346 84.324,206.672 85.630 C 206.998 86.936,207.416 88.199,207.601 88.436 C 207.786 88.674,208.165 89.920,208.442 91.207 C 208.720 92.493,209.081 93.545,209.245 93.545 C 209.408 93.545,209.542 93.989,209.542 94.531 C 209.542 95.600,210.164 98.146,210.719 99.345 C 211.052 100.066,211.920 103.749,213.143 109.635 C 213.464 111.179,213.943 112.947,214.207 113.564 C 214.471 114.181,214.798 115.686,214.932 116.907 C 215.067 118.128,215.320 119.307,215.495 119.526 C 215.670 119.746,216.007 121.598,216.244 123.643 C 216.481 125.687,216.817 127.540,216.991 127.759 C 217.165 127.978,217.399 129.083,217.509 130.215 C 217.620 131.347,217.903 134.289,218.139 136.752 C 218.374 139.216,218.705 141.405,218.874 141.617 C 219.957 142.975,219.970 185.146,218.888 186.529 C 218.727 186.735,218.488 188.082,218.357 189.523 C 217.940 194.108,217.293 198.490,216.973 198.909 C 216.802 199.132,216.467 201.027,216.230 203.119 C 215.992 205.211,215.668 206.922,215.510 206.922 C 215.351 206.922,215.019 208.143,214.771 209.635 C 214.523 211.127,214.190 212.516,214.031 212.722 C 213.871 212.928,213.534 214.107,213.281 215.341 C 213.028 216.576,212.597 218.099,212.323 218.726 C 212.048 219.353,211.639 220.693,211.412 221.704 C 211.186 222.716,210.871 223.718,210.712 223.932 C 210.554 224.147,210.207 225.080,209.941 226.006 C 209.346 228.073,209.129 228.632,207.897 231.281 C 207.361 232.434,206.922 233.601,206.922 233.876 C 206.922 234.371,206.353 235.692,204.262 240.044 C 203.667 241.282,203.181 242.569,203.181 242.903 C 203.181 243.238,202.928 243.609,202.619 243.727 C 202.311 243.846,202.058 244.275,202.058 244.681 C 202.058 245.087,201.911 245.510,201.731 245.621 C 201.551 245.732,200.961 246.710,200.419 247.795 C 199.877 248.879,198.930 250.608,198.315 251.637 C 197.700 252.666,197.100 253.761,196.981 254.069 C 196.722 254.744,196.576 254.985,195.143 257.100 C 193.809 259.070,193.336 259.851,192.501 261.459 C 192.154 262.128,191.716 262.675,191.529 262.675 C 191.342 262.675,191.023 263.109,190.822 263.639 C 190.620 264.169,189.783 265.401,188.960 266.376 C 188.138 267.351,187.465 268.343,187.465 268.580 C 187.465 268.816,187.128 269.190,186.717 269.411 C 186.305 269.631,185.968 269.966,185.968 270.156 C 185.968 270.346,185.301 271.224,184.485 272.107 C 183.669 272.991,182.807 274.135,182.570 274.649 C 182.333 275.164,182.000 275.862,181.829 276.201 C 181.474 276.909,182.473 279.109,183.806 280.553 L 184.659 281.478 191.561 281.228 C 195.358 281.091,198.642 280.839,198.858 280.668 C 199.225 280.378,201.547 280.249,217.212 279.649 C 220.505 279.523,223.368 279.291,223.573 279.134 C 224.006 278.803,228.835 278.523,243.192 277.998 C 248.837 277.791,253.636 277.479,253.856 277.305 C 254.229 277.010,256.677 276.877,272.217 276.311 C 275.510 276.192,278.541 275.955,278.952 275.785 C 280.106 275.310,291.359 274.638,298.054 274.644 C 301.357 274.647,304.220 274.494,304.415 274.305 C 304.611 274.115,309.317 273.759,314.874 273.514 C 320.430 273.268,325.145 272.941,325.351 272.786 C 325.557 272.631,328.840 272.385,332.647 272.239 C 345.809 271.735,345.477 271.838,347.478 267.640 C 347.991 266.564,348.569 265.586,348.761 265.467 C 348.954 265.348,349.111 264.963,349.111 264.612 C 349.111 264.261,349.426 263.387,349.810 262.670 C 350.194 261.953,350.628 260.819,350.775 260.150 C 350.922 259.481,351.186 258.934,351.363 258.934 C 351.540 258.934,351.798 258.181,351.935 257.262 C 352.073 256.342,352.420 255.396,352.707 255.158 C 352.993 254.920,353.227 254.464,353.227 254.144 C 353.227 253.465,353.853 251.373,354.537 249.766 C 354.800 249.149,355.213 247.469,355.456 246.033 C 355.698 244.596,356.034 243.249,356.201 243.039 C 356.506 242.657,356.762 241.317,357.204 237.792 C 357.332 236.763,357.585 235.736,357.764 235.510 C 359.135 233.779,359.154 203.623,357.785 200.180 C 357.583 199.669,357.217 197.820,356.972 196.071 C 356.728 194.322,356.310 192.385,356.043 191.768 C 355.777 191.151,355.439 189.804,355.293 188.775 C 355.147 187.746,354.895 186.735,354.732 186.529 C 354.569 186.324,354.319 185.566,354.175 184.846 C 353.804 182.984,353.208 181.068,352.662 179.981 C 352.403 179.467,352.077 178.457,351.937 177.736 C 351.679 176.409,351.089 174.932,349.815 172.424 C 349.428 171.662,349.111 170.715,349.111 170.318 C 349.111 169.921,348.859 169.386,348.550 169.130 C 348.241 168.874,347.989 168.430,347.989 168.144 C 347.989 167.857,347.837 167.331,347.652 166.973 C 347.467 166.616,346.939 165.482,346.479 164.453 C 346.018 163.424,345.417 162.161,345.143 161.646 C 344.869 161.132,344.453 160.290,344.219 159.775 C 343.984 159.261,343.640 158.587,343.454 158.279 C 343.267 157.970,342.788 157.044,342.389 156.221 C 341.346 154.071,340.383 152.521,339.892 152.203 C 339.658 152.051,339.350 151.462,339.208 150.893 C 339.066 150.325,338.695 149.577,338.383 149.231 C 337.851 148.640,337.082 147.357,335.954 145.182 C 335.688 144.668,335.255 144.112,334.994 143.948 C 334.732 143.783,334.518 143.474,334.518 143.261 C 334.518 143.048,333.761 141.910,332.834 140.731 C 331.908 139.552,331.151 138.458,331.151 138.299 C 331.151 138.140,330.393 137.045,329.467 135.867 C 328.541 134.688,327.783 133.589,327.783 133.425 C 327.783 133.262,326.688 131.805,325.351 130.188 C 324.013 128.571,322.919 127.074,322.919 126.861 C 322.919 126.648,322.783 126.473,322.617 126.473 C 322.450 126.473,321.534 125.421,320.580 124.135 C 319.626 122.848,318.121 121.006,317.234 120.041 C 316.347 119.076,315.117 117.674,314.500 116.926 C 310.291 111.825,290.007 91.451,288.587 90.898 C 288.124 90.718,287.746 90.314,287.746 90.000 C 287.746 89.686,287.488 89.429,287.173 89.429 C 286.857 89.429,286.501 89.172,286.380 88.857 C 286.259 88.542,285.769 88.079,285.291 87.828 C 284.813 87.577,282.939 85.924,281.126 84.155 C 279.313 82.386,277.326 80.618,276.711 80.226 C 276.095 79.834,275.086 78.966,274.468 78.297 C 273.850 77.629,273.213 77.081,273.053 77.081 C 272.892 77.081,271.264 75.819,269.435 74.275 C 267.605 72.732,266.010 71.469,265.889 71.469 C 265.768 71.469,265.374 71.209,265.014 70.892 C 262.865 68.999,259.699 66.604,259.347 66.604 C 259.119 66.604,258.934 66.450,258.934 66.261 C 258.934 66.072,258.342 65.552,257.620 65.105 C 256.510 64.419,255.094 63.346,252.682 61.363 C 252.433 61.159,252.121 60.992,251.988 60.992 C 251.855 60.992,250.739 60.150,249.508 59.121 C 248.276 58.092,247.099 57.250,246.892 57.250 C 246.685 57.250,245.563 56.526,244.399 55.641 C 243.235 54.756,241.988 53.920,241.628 53.782 C 241.268 53.644,240.973 53.264,240.973 52.936 C 240.973 52.609,240.803 52.446,240.595 52.575 C 240.387 52.703,239.591 52.292,238.826 51.661 C 238.061 51.031,237.221 50.514,236.959 50.514 C 236.697 50.514,236.483 50.354,236.483 50.159 C 236.483 49.963,235.430 49.214,234.144 48.495 C 232.858 47.775,230.891 46.504,229.773 45.670 C 228.656 44.836,227.519 44.153,227.248 44.153 C 226.976 44.153,226.754 44.013,226.754 43.842 C 226.754 43.469,223.263 41.160,222.698 41.160 C 222.480 41.160,222.166 40.949,222.002 40.692 C 221.677 40.184,220.211 39.281,218.151 38.317 C 217.432 37.982,216.367 37.305,215.784 36.814 C 215.200 36.323,214.483 35.921,214.190 35.921 C 213.897 35.921,213.658 35.753,213.658 35.547 C 213.658 35.341,213.473 35.173,213.248 35.173 C 213.022 35.173,212.310 34.794,211.665 34.331 C 210.156 33.247,209.305 32.746,207.577 31.923 C 206.805 31.555,206.174 31.128,206.174 30.974 C 206.174 30.819,205.627 30.431,204.958 30.110 C 204.289 29.789,202.900 29.037,201.871 28.438 C 200.842 27.839,199.453 27.086,198.784 26.766 C 198.115 26.445,197.568 26.024,197.568 25.830 C 197.568 25.637,196.976 25.367,196.253 25.232 C 195.530 25.096,194.814 24.785,194.663 24.540 C 194.511 24.295,193.763 23.804,193.000 23.450 C 192.237 23.095,191.523 22.660,191.413 22.482 C 191.304 22.305,190.749 22.044,190.181 21.902 C 189.613 21.760,188.896 21.424,188.587 21.154 C 187.801 20.466,185.979 20.202,184.698 20.591 M169.878 61.545 C 169.878 61.849,169.437 63.069,168.897 64.257 C 168.357 65.445,167.576 67.175,167.162 68.101 C 166.747 69.027,166.104 70.458,165.731 71.282 C 163.519 76.171,163.143 77.092,163.143 77.631 C 163.143 77.959,162.909 78.317,162.624 78.427 C 162.338 78.536,162.005 79.123,161.884 79.730 C 161.762 80.338,161.218 81.801,160.675 82.981 C 158.770 87.118,157.982 88.886,157.131 90.926 C 156.659 92.058,156.050 93.316,155.779 93.722 C 155.507 94.128,155.285 94.697,155.285 94.986 C 155.285 95.275,154.718 96.711,154.025 98.177 C 152.182 102.071,151.543 103.537,151.543 103.871 C 151.543 104.034,150.973 105.355,150.276 106.808 C 149.035 109.393,148.615 110.345,147.208 113.751 C 146.826 114.677,146.414 115.519,146.294 115.622 C 146.174 115.725,145.855 116.399,145.585 117.119 C 144.620 119.695,144.030 121.068,143.302 122.431 C 142.896 123.193,142.563 124.056,142.563 124.350 C 142.563 124.644,142.321 125.086,142.026 125.331 C 141.730 125.576,141.372 126.307,141.230 126.955 C 141.088 127.603,140.834 128.391,140.666 128.706 C 139.499 130.900,137.699 135.036,137.699 135.523 C 137.699 135.846,137.473 136.297,137.198 136.526 C 136.923 136.755,136.487 137.659,136.230 138.536 C 135.973 139.413,135.418 140.889,134.997 141.815 C 134.576 142.741,133.852 144.341,133.387 145.370 C 132.922 146.399,132.187 148.009,131.753 148.949 C 131.319 149.888,130.964 150.801,130.964 150.977 C 130.964 151.153,130.746 151.563,130.480 151.888 C 130.214 152.213,129.776 153.152,129.508 153.976 C 128.963 155.649,127.728 158.544,127.193 159.401 C 127.000 159.710,126.746 160.215,126.628 160.524 C 126.510 160.833,126.108 161.759,125.735 162.582 C 125.362 163.405,124.836 164.752,124.565 165.575 C 124.295 166.399,123.856 167.338,123.590 167.663 C 123.323 167.988,123.106 168.459,123.106 168.711 C 123.106 168.963,122.784 169.792,122.390 170.553 C 120.724 173.773,119.738 176.114,119.738 176.849 C 119.738 177.282,119.401 178.063,118.990 178.587 C 118.578 179.110,118.241 179.663,118.241 179.816 C 118.241 179.969,117.795 181.037,117.249 182.189 C 116.703 183.341,116.127 184.621,115.969 185.033 C 115.811 185.444,115.079 187.073,114.342 188.652 C 113.606 190.231,113.003 191.788,113.003 192.113 C 113.003 192.438,112.834 192.703,112.629 192.703 C 112.423 192.703,112.254 192.958,112.254 193.270 C 112.254 193.581,112.099 194.129,111.908 194.486 C 110.923 196.335,108.887 200.894,108.887 201.251 C 108.887 201.477,108.382 202.655,107.764 203.870 C 107.147 205.085,106.642 206.269,106.642 206.501 C 106.642 206.733,106.492 206.922,106.309 206.922 C 106.126 206.922,105.859 207.554,105.716 208.326 C 105.573 209.097,105.239 209.981,104.974 210.290 C 104.708 210.599,104.277 211.525,104.015 212.348 C 103.753 213.171,103.226 214.432,102.845 215.149 C 102.464 215.866,102.152 216.732,102.152 217.073 C 102.152 217.414,101.941 217.776,101.684 217.877 C 101.427 217.977,100.999 218.795,100.734 219.694 C 100.333 221.050,98.746 224.641,97.244 227.591 C 97.062 227.948,96.913 228.453,96.914 228.713 C 96.915 229.295,95.331 232.508,94.960 232.675 C 94.813 232.741,94.581 233.386,94.445 234.108 C 94.310 234.829,93.984 235.502,93.722 235.603 C 93.460 235.704,93.135 236.372,93.000 237.089 C 92.866 237.805,92.344 239.165,91.841 240.112 C 91.338 241.058,90.926 242.040,90.926 242.292 C 90.926 242.545,90.674 242.962,90.365 243.218 C 90.056 243.474,89.804 244.053,89.804 244.505 C 89.804 244.957,89.298 246.314,88.681 247.521 C 88.064 248.728,87.558 249.917,87.558 250.163 C 87.558 250.409,87.306 250.820,86.997 251.076 C 86.688 251.332,86.436 251.799,86.436 252.114 C 86.436 252.429,85.931 253.756,85.313 255.063 C 84.696 256.370,84.191 257.565,84.192 257.718 C 84.192 257.872,83.864 258.672,83.462 259.495 C 82.583 261.296,80.486 266.102,79.707 268.101 C 79.041 269.809,77.623 272.600,77.362 272.716 C 77.208 272.785,77.081 273.119,77.081 273.458 C 77.081 273.798,76.563 275.173,75.930 276.514 C 74.177 280.227,73.808 281.078,73.291 282.601 C 73.029 283.372,72.680 284.004,72.516 284.004 C 72.352 284.004,72.217 284.296,72.217 284.653 C 72.217 285.242,71.806 286.215,69.568 290.926 C 68.448 293.285,68.244 294.883,68.992 295.430 C 69.699 295.947,75.839 295.748,76.552 295.186 C 76.776 295.009,80.555 294.604,84.951 294.284 C 89.346 293.965,93.160 293.523,93.426 293.302 C 93.692 293.081,96.059 292.744,98.686 292.553 C 101.312 292.362,103.798 292.057,104.210 291.875 C 104.621 291.693,107.652 291.347,110.945 291.106 C 114.238 290.866,117.268 290.528,117.680 290.355 C 118.370 290.066,120.566 289.864,127.970 289.407 C 131.768 289.174,136.734 288.623,139.008 288.183 C 140.037 287.985,143.152 287.698,145.931 287.547 C 148.709 287.396,151.066 287.144,151.169 286.986 C 151.272 286.829,153.783 286.509,156.748 286.277 C 163.327 285.761,163.115 285.942,163.131 280.804 C 163.138 278.736,163.302 276.884,163.496 276.688 C 163.692 276.490,164.036 268.968,164.273 259.682 C 164.506 250.524,164.846 242.694,165.027 242.283 C 165.209 241.871,165.549 235.304,165.782 227.689 C 166.016 220.075,166.341 213.676,166.505 213.471 C 166.668 213.265,166.888 209.897,166.993 205.987 C 167.803 175.863,168.107 167.350,168.394 166.698 C 168.576 166.286,168.917 159.719,169.153 152.105 C 169.389 144.490,169.710 138.092,169.866 137.886 C 170.023 137.680,170.278 133.386,170.435 128.344 C 170.725 118.996,171.108 109.197,171.694 96.165 C 172.406 80.345,172.960 62.134,172.746 61.578 C 172.443 60.787,169.878 60.758,169.878 61.545 M362.769 282.198 C 360.917 282.375,358.391 282.703,357.156 282.928 C 355.921 283.153,351.880 283.568,348.176 283.851 C 344.471 284.133,340.262 284.527,338.821 284.726 C 337.381 284.925,334.350 285.280,332.086 285.514 C 329.822 285.749,326.539 286.092,324.790 286.278 C 323.040 286.464,318.578 286.867,314.874 287.175 C 311.169 287.482,306.876 287.897,305.332 288.096 C 303.789 288.295,300.842 288.645,298.784 288.873 C 296.726 289.102,293.779 289.439,292.236 289.621 C 290.692 289.804,287.325 290.125,284.752 290.335 C 277.661 290.914,268.063 291.848,264.920 292.264 C 263.377 292.468,260.430 292.798,258.372 292.996 C 256.314 293.194,252.947 293.530,250.889 293.744 C 244.802 294.376,240.656 294.745,236.483 295.026 C 234.322 295.172,232.066 295.445,231.470 295.634 C 230.874 295.822,228.096 296.160,225.296 296.385 C 222.497 296.609,218.690 296.950,216.838 297.142 C 213.508 297.486,209.514 297.874,202.245 298.557 C 200.187 298.751,197.156 299.089,195.510 299.310 C 190.689 299.954,185.840 300.452,179.046 300.998 C 175.547 301.279,169.822 301.857,166.324 302.282 C 162.825 302.707,157.942 303.161,155.472 303.292 C 153.003 303.423,150.393 303.678,149.673 303.858 C 148.952 304.038,145.921 304.376,142.937 304.608 C 139.953 304.841,137.343 305.160,137.138 305.318 C 136.932 305.475,135.080 305.715,133.022 305.851 C 128.484 306.150,122.652 306.663,117.867 307.185 C 115.912 307.398,112.123 307.744,109.448 307.953 C 106.773 308.161,104.163 308.485,103.648 308.673 C 103.134 308.860,101.029 309.125,98.971 309.261 C 96.913 309.397,93.714 309.668,91.862 309.862 C 85.865 310.490,81.843 310.851,77.643 311.139 C 75.379 311.295,73.249 311.564,72.911 311.737 C 72.572 311.910,69.962 312.223,67.111 312.433 C 64.260 312.642,61.169 312.977,60.243 313.177 C 59.317 313.377,55.781 313.735,52.385 313.972 C 45.751 314.437,42.269 314.760,36.670 315.431 C 34.715 315.666,32.405 315.940,31.538 316.041 C 30.348 316.180,29.521 316.624,28.170 317.847 L 26.380 319.469 26.387 322.410 C 26.394 324.970,26.527 325.556,27.416 326.934 C 27.978 327.804,28.438 328.654,28.438 328.822 C 28.438 328.990,29.754 331.814,31.364 335.097 C 32.973 338.380,35.252 343.087,36.428 345.557 C 39.301 351.590,39.400 351.752,40.978 353.040 L 42.353 354.163 58.314 354.066 C 67.093 354.012,85.557 353.793,99.345 353.579 C 113.134 353.365,128.120 353.140,132.647 353.079 C 137.175 353.018,153.508 352.771,168.943 352.531 C 184.378 352.290,207.783 351.925,220.954 351.719 C 234.125 351.514,245.659 351.292,246.586 351.226 C 247.512 351.161,265.276 350.901,286.062 350.648 C 306.848 350.396,324.359 350.050,324.977 349.879 C 325.594 349.708,328.709 349.539,331.899 349.503 C 339.003 349.422,341.656 348.003,342.581 343.790 C 342.706 343.220,343.006 342.627,343.247 342.472 C 343.691 342.186,344.105 341.535,345.572 338.821 C 346.017 337.998,346.914 336.538,347.566 335.576 C 348.218 334.614,349.006 333.267,349.317 332.583 C 349.629 331.898,350.213 330.833,350.616 330.215 C 351.019 329.598,351.554 328.672,351.805 328.157 C 352.057 327.643,352.871 326.296,353.616 325.164 C 354.360 324.032,355.064 322.853,355.179 322.544 C 355.294 322.236,356.165 320.728,357.114 319.194 C 358.063 317.660,358.840 316.187,358.840 315.920 C 358.840 315.653,358.996 315.435,359.187 315.435 C 359.378 315.435,359.777 314.972,360.074 314.406 C 361.399 311.884,362.577 309.818,363.560 308.291 C 364.144 307.384,364.920 306.052,365.284 305.332 C 365.649 304.612,366.277 303.517,366.680 302.900 C 367.083 302.283,367.854 300.935,368.394 299.906 C 368.934 298.877,369.784 297.500,370.282 296.844 C 370.780 296.189,371.188 295.494,371.188 295.299 C 371.188 295.105,371.755 294.004,372.448 292.853 C 375.186 288.307,373.830 283.529,369.428 282.210 C 367.798 281.722,367.762 281.722,362.769 282.198 " stroke="none" fill="#eef" fill-rule="evenodd"></path></g></svg>