<svg id="svg" version="1.1" xmlns="http://www.w3.org/2000/svg" xmlns:xlink="http://www.w3.org/1999/xlink" width="400" height="591.727493917275" viewBox="0, 0, 400,591.727493917275"><g id="svgg"><path id="path0" d="M244.569 18.767 C 244.476 18.858,244.400 21.754,244.400 25.201 C 244.400 42.331,243.877 58.120,243.334 57.378 C 242.701 56.511,242.606 59.928,243.169 63.354 C 243.590 65.917,243.264 68.800,242.553 68.800 C 242.122 68.800,242.062 69.410,242.260 71.754 C 242.555 75.244,242.261 76.875,241.396 76.543 C 240.669 76.264,240.623 77.115,241.251 79.214 C 241.777 80.969,241.390 84.400,240.665 84.400 C 240.321 84.400,240.183 85.417,240.190 87.900 C 240.199 91.064,240.129 91.394,239.460 91.338 C 238.835 91.285,238.760 91.472,238.977 92.538 C 239.863 96.888,239.669 101.600,238.606 101.600 C 238.163 101.600,238.063 102.365,238.124 105.300 C 238.193 108.658,238.133 108.994,237.473 108.940 C 236.944 108.896,236.819 109.060,237.017 109.540 C 237.923 111.743,237.653 115.600,236.592 115.600 C 235.903 115.600,235.896 115.682,236.400 117.800 C 236.854 119.710,236.519 122.000,235.786 122.000 C 235.380 122.000,235.313 122.679,235.490 125.022 C 235.708 127.902,235.677 128.055,234.827 128.277 C 234.139 128.457,233.994 128.703,234.193 129.355 C 234.917 131.726,234.892 133.508,234.125 134.275 C 233.445 134.955,233.376 135.494,233.527 138.947 C 233.689 142.658,233.656 142.860,232.849 143.071 C 231.863 143.329,231.849 143.424,232.463 145.718 C 232.979 147.648,232.669 149.600,231.846 149.600 C 231.427 149.600,231.351 150.214,231.504 152.359 C 231.684 154.874,231.626 155.158,230.846 155.576 C 230.161 155.942,230.071 156.185,230.395 156.790 C 231.219 158.331,230.784 161.200,229.725 161.200 C 229.264 161.200,229.204 161.481,229.447 162.500 C 229.886 164.342,229.713 166.128,229.048 166.615 C 228.614 166.932,228.529 167.662,228.691 169.681 C 228.939 172.766,228.628 174.400,227.792 174.400 C 227.106 174.400,227.038 175.123,227.590 176.574 C 228.088 177.883,227.677 180.000,226.925 180.000 C 226.472 180.000,226.407 180.377,226.620 181.795 C 226.962 184.072,226.576 185.753,225.783 185.449 C 225.080 185.179,225.065 185.369,225.659 187.011 C 226.184 188.465,225.839 190.400,225.054 190.400 C 224.665 190.400,224.533 191.069,224.561 192.900 C 224.595 195.085,224.508 195.392,223.873 195.340 C 223.358 195.297,223.217 195.468,223.391 195.922 C 224.287 198.255,224.031 203.051,223.031 202.667 C 222.625 202.511,222.555 203.070,222.710 205.234 C 222.877 207.577,222.810 208.000,222.273 208.000 C 221.749 208.000,221.678 208.338,221.866 209.925 C 222.043 211.425,221.942 212.001,221.406 212.536 C 220.973 212.970,220.803 213.558,220.947 214.130 C 221.224 215.233,220.657 217.430,220.124 217.323 C 219.896 217.278,219.813 218.149,219.921 219.447 C 220.083 221.408,220.014 221.671,219.285 221.862 C 218.570 222.049,218.519 222.222,218.876 223.245 C 219.357 224.627,219.007 226.400,218.252 226.400 C 217.840 226.400,217.763 227.072,217.912 229.393 C 218.076 231.948,218.005 232.423,217.426 232.645 C 216.883 232.854,216.799 233.212,217.006 234.436 C 217.300 236.177,216.971 237.600,216.273 237.600 C 215.954 237.600,215.845 238.249,215.939 239.600 C 216.052 241.239,215.960 241.600,215.425 241.600 C 214.872 241.600,214.814 241.910,215.041 243.623 C 215.285 245.464,215.233 245.666,214.458 245.869 C 213.772 246.048,213.656 246.295,213.855 247.146 C 213.991 247.726,214.101 248.290,214.099 248.400 C 214.075 249.598,213.919 250.000,213.474 250.000 C 213.086 250.000,212.956 250.759,212.974 252.900 C 212.997 255.467,212.917 255.793,212.273 255.740 C 211.818 255.702,211.622 255.879,211.749 256.211 C 212.497 258.160,212.481 259.654,211.711 259.855 C 211.024 260.035,210.948 260.319,211.118 262.083 C 211.270 263.666,211.172 264.184,210.669 264.466 C 210.205 264.725,210.092 265.158,210.262 266.012 C 210.500 267.198,209.819 268.583,209.190 268.194 C 209.014 268.085,208.899 268.852,208.935 269.898 C 208.988 271.439,208.875 271.791,208.343 271.752 C 207.794 271.711,207.744 271.908,208.043 272.949 C 208.675 275.152,208.494 276.850,207.604 277.083 C 206.974 277.248,206.859 277.511,207.055 278.346 C 207.191 278.926,207.301 279.490,207.299 279.600 C 207.275 280.806,207.115 281.200,206.649 281.200 C 206.232 281.200,206.148 281.642,206.304 283.023 C 206.484 284.621,206.407 284.873,205.681 285.063 C 204.981 285.246,204.917 285.419,205.268 286.189 C 205.699 287.135,205.152 288.800,204.411 288.800 C 204.213 288.800,204.154 289.440,204.281 290.223 C 204.475 291.420,204.384 291.679,203.704 291.857 C 202.988 292.044,202.942 292.219,203.302 293.392 C 203.776 294.935,203.420 296.800,202.651 296.800 C 202.252 296.800,202.166 297.303,202.310 298.800 C 202.490 300.682,202.447 300.800,201.571 300.800 C 200.847 300.800,200.747 300.907,201.120 301.280 C 201.794 301.954,201.718 303.580,201.000 303.855 C 200.609 304.005,200.400 304.628,200.400 305.643 C 200.400 306.766,200.231 307.200,199.795 307.200 C 199.314 307.200,199.243 307.526,199.446 308.800 C 199.679 310.252,199.622 310.400,198.837 310.400 C 198.090 310.400,198.032 310.512,198.408 311.215 C 198.937 312.204,198.563 313.600,197.770 313.600 C 197.306 313.600,197.244 314.031,197.452 315.800 C 197.697 317.890,197.665 318.000,196.812 318.000 C 196.114 318.000,195.978 318.156,196.203 318.700 C 196.828 320.219,196.839 320.704,196.261 321.282 C 195.930 321.613,195.601 322.495,195.530 323.242 C 195.436 324.221,195.213 324.586,194.729 324.549 C 194.183 324.508,194.125 324.677,194.417 325.446 C 194.836 326.547,194.502 327.725,193.842 327.472 C 193.537 327.354,193.437 327.805,193.536 328.845 C 193.647 330.009,193.519 330.456,193.021 330.647 C 192.528 330.837,192.423 331.192,192.609 332.042 C 192.927 333.490,192.488 334.920,191.806 334.658 C 191.411 334.506,191.335 334.840,191.495 336.029 C 191.658 337.251,191.572 337.600,191.107 337.600 C 190.674 337.600,190.521 338.015,190.554 339.100 C 190.591 340.320,190.469 340.578,189.900 340.482 C 189.120 340.352,188.981 340.821,189.613 341.453 C 190.066 341.906,189.728 343.200,189.157 343.200 C 188.961 343.200,188.800 343.718,188.800 344.351 C 188.800 344.984,188.543 345.715,188.229 345.976 C 187.844 346.295,187.731 346.895,187.881 347.819 C 188.058 348.910,187.950 349.250,187.351 349.494 C 186.818 349.711,186.600 350.206,186.600 351.200 C 186.600 351.973,186.409 352.566,186.173 352.524 C 185.917 352.479,185.816 352.930,185.922 353.649 C 186.059 354.586,185.928 354.894,185.322 355.052 C 184.721 355.209,184.585 355.519,184.719 356.427 C 184.821 357.125,184.710 357.600,184.445 357.600 C 184.200 357.600,184.000 358.140,184.000 358.800 C 184.000 359.754,183.827 360.000,183.157 360.000 C 182.511 360.000,182.382 360.164,182.603 360.700 C 183.310 362.418,183.298 362.849,182.536 363.049 C 181.921 363.209,181.799 363.526,181.927 364.625 C 182.065 365.809,181.970 366.000,181.240 366.000 C 180.501 366.000,180.455 366.099,180.879 366.778 C 181.277 367.415,181.241 367.691,180.682 368.309 C 180.307 368.724,180.000 369.475,180.000 369.978 C 180.000 370.696,179.828 370.848,179.200 370.684 C 178.311 370.452,178.161 370.801,178.853 371.493 C 179.431 372.071,178.963 373.348,178.272 373.083 C 177.896 372.939,177.798 373.207,177.921 374.041 C 178.021 374.728,177.909 375.200,177.645 375.200 C 177.400 375.200,177.200 375.808,177.200 376.551 C 177.200 377.294,176.922 378.133,176.582 378.415 C 176.242 378.697,176.054 379.165,176.165 379.454 C 176.276 379.742,176.064 380.148,175.693 380.356 C 175.323 380.563,175.015 381.153,175.010 381.666 C 175.003 382.314,174.781 382.582,174.286 382.542 C 173.714 382.496,173.666 382.597,174.041 383.050 C 174.407 383.490,174.366 383.775,173.855 384.339 C 173.495 384.737,173.200 385.432,173.200 385.883 C 173.200 386.333,172.949 386.911,172.641 387.166 C 172.334 387.421,172.178 387.993,172.294 388.438 C 172.445 389.017,172.276 389.307,171.699 389.458 C 171.184 389.593,170.957 389.913,171.070 390.345 C 171.286 391.171,169.081 395.434,168.500 395.314 C 168.270 395.266,168.166 395.548,168.269 395.941 C 168.371 396.333,167.993 397.524,167.428 398.587 C 166.862 399.649,166.400 400.768,166.400 401.072 C 166.400 401.376,166.120 401.733,165.777 401.864 C 165.434 401.996,165.249 402.350,165.364 402.651 C 165.480 402.952,165.084 403.700,164.484 404.314 C 163.885 404.927,163.454 405.737,163.527 406.114 C 163.615 406.571,163.400 406.800,162.885 406.800 C 162.275 406.800,162.151 407.012,162.302 407.800 C 162.414 408.384,162.307 408.800,162.047 408.800 C 161.801 408.800,161.600 409.166,161.600 409.613 C 161.600 410.059,161.330 410.529,161.000 410.655 C 160.670 410.782,160.400 411.200,160.400 411.584 C 160.400 411.969,159.950 412.769,159.400 413.362 C 158.850 413.956,158.400 414.702,158.400 415.021 C 158.400 415.339,158.220 415.600,158.000 415.600 C 157.780 415.600,157.600 415.870,157.600 416.200 C 157.600 416.530,157.347 416.800,157.037 416.800 C 156.673 416.800,156.548 417.080,156.683 417.595 C 156.815 418.099,156.655 418.481,156.245 418.638 C 155.890 418.774,155.600 419.161,155.600 419.497 C 155.600 419.833,155.150 420.525,154.600 421.035 C 154.050 421.545,153.600 422.206,153.600 422.505 C 153.600 422.804,153.285 423.400,152.900 423.829 C 152.515 424.257,151.570 425.551,150.800 426.703 C 150.030 427.856,149.265 428.799,149.100 428.799 C 148.935 428.800,148.800 429.051,148.800 429.357 C 148.800 429.664,148.528 430.019,148.197 430.146 C 147.865 430.273,147.386 430.833,147.132 431.389 C 146.879 431.945,146.420 432.400,146.112 432.400 C 145.804 432.400,145.676 432.600,145.827 432.844 C 146.070 433.236,144.251 435.196,143.638 435.203 C 143.507 435.204,142.975 435.829,142.456 436.592 C 140.458 439.525,139.708 440.188,139.026 439.622 C 138.502 439.187,138.400 439.207,138.400 439.743 C 138.400 440.587,137.003 440.905,134.025 440.737 C 131.966 440.621,131.599 440.702,131.599 441.271 C 131.600 441.641,131.330 442.213,131.000 442.543 C 130.105 443.438,130.229 446.122,131.207 447.007 C 131.897 447.631,132.945 447.764,138.434 447.922 C 145.572 448.128,146.483 448.698,139.995 448.901 C 137.688 448.972,141.954 449.069,149.476 449.116 C 158.255 449.170,163.241 449.057,163.400 448.800 C 163.961 447.892,164.400 448.511,164.400 450.213 C 164.400 451.480,164.214 452.097,163.781 452.263 C 163.267 452.460,163.207 452.967,163.430 455.226 C 163.741 458.382,163.446 460.000,162.561 460.000 C 162.062 460.000,161.996 460.261,162.235 461.300 C 162.739 463.489,162.526 466.919,161.856 467.408 C 161.362 467.769,161.297 468.551,161.490 471.785 L 161.725 475.722 160.098 475.504 C 158.753 475.324,158.438 475.412,158.281 476.012 C 158.105 476.686,157.529 476.732,150.259 476.654 L 142.426 476.571 138.813 473.035 C 136.826 471.090,135.200 469.417,135.200 469.316 C 135.200 469.053,132.749 466.739,131.480 465.805 C 130.886 465.368,130.400 464.783,130.400 464.505 C 130.400 464.227,130.259 464.000,130.086 464.000 C 128.740 464.000,128.472 461.700,129.666 460.392 C 130.342 459.652,131.071 458.541,131.287 457.923 C 131.502 457.305,131.892 456.800,132.154 456.800 C 132.416 456.800,132.658 456.427,132.692 455.972 C 132.770 454.938,129.701 451.600,128.672 451.600 C 128.261 451.600,127.831 451.240,127.716 450.800 C 127.474 449.873,127.536 449.892,126.296 450.364 C 125.221 450.772,122.563 450.332,122.668 449.764 C 122.708 449.544,119.135 449.443,113.868 449.513 C 104.377 449.641,102.992 449.518,103.351 448.583 C 103.623 447.875,102.814 447.834,100.617 448.444 C 99.238 448.827,98.955 448.788,98.417 448.142 C 97.656 447.227,79.600 446.969,79.600 447.873 C 79.600 448.604,78.176 448.886,76.636 448.461 C 75.468 448.138,75.223 448.183,75.116 448.738 C 74.945 449.625,65.342 449.747,65.004 448.867 C 64.892 448.573,64.575 448.414,64.300 448.513 C 64.025 448.611,63.485 448.530,63.100 448.332 C 62.555 448.051,62.400 448.137,62.400 448.720 C 62.400 450.629,60.511 451.404,56.000 451.346 L 51.800 451.292 51.685 447.646 C 51.622 445.641,51.669 444.000,51.790 444.000 C 52.230 444.000,53.808 445.012,54.115 445.491 C 54.545 446.163,58.012 448.521,58.238 448.296 C 58.441 448.092,51.880 441.590,50.941 441.063 C 49.902 440.481,49.849 441.049,50.331 447.503 C 51.071 457.412,50.968 470.666,50.148 471.125 C 49.593 471.436,49.464 472.610,49.290 478.977 L 49.085 486.463 46.542 486.332 C 45.028 486.253,43.995 486.362,43.991 486.600 C 43.982 487.099,39.450 491.600,38.956 491.600 C 38.757 491.600,38.659 492.410,38.737 493.400 C 38.845 494.752,38.740 495.200,38.315 495.200 C 37.904 495.200,37.757 495.716,37.775 497.088 C 37.810 499.706,36.911 499.808,34.587 497.451 C 33.604 496.454,32.800 495.494,32.801 495.319 C 32.801 495.144,31.721 495.061,30.401 495.136 C 29.080 495.210,28.000 495.403,28.000 495.565 C 28.000 495.726,27.175 496.295,26.166 496.829 C 22.964 498.524,22.804 498.644,23.198 499.038 C 23.719 499.559,23.229 501.200,22.553 501.200 C 22.249 501.200,22.000 501.560,22.000 502.000 C 22.000 502.440,22.256 502.800,22.568 502.800 C 22.881 502.800,23.255 503.340,23.400 504.000 C 23.575 504.795,23.908 505.200,24.389 505.200 C 24.788 505.200,25.226 505.490,25.362 505.845 C 25.563 506.368,25.957 506.437,27.460 506.212 C 29.198 505.951,29.297 505.985,29.093 506.767 C 28.948 507.319,29.064 507.600,29.437 507.600 C 30.103 507.600,30.064 507.419,30.204 511.200 C 30.265 512.850,30.158 514.495,29.967 514.856 C 29.708 515.344,29.822 515.565,30.410 515.718 C 30.844 515.832,31.200 516.206,31.200 516.549 C 31.200 516.892,31.695 517.685,32.300 518.310 C 32.905 518.936,33.758 519.933,34.195 520.524 C 34.667 521.163,35.373 521.600,35.932 521.600 C 36.542 521.600,36.950 521.886,37.086 522.408 C 37.249 523.029,37.421 523.114,37.830 522.775 C 38.457 522.254,40.000 522.646,40.000 523.327 C 40.000 523.682,43.600 523.800,54.467 523.800 C 65.700 523.800,68.971 523.912,69.101 524.301 C 69.233 524.699,74.584 524.749,95.134 524.542 C 124.173 524.251,135.394 524.516,135.022 525.487 C 134.819 526.016,136.624 526.045,150.496 525.743 C 176.126 525.183,203.283 525.539,201.000 526.405 C 200.560 526.571,218.470 526.613,240.800 526.496 C 279.737 526.294,295.600 526.503,295.600 527.219 C 295.600 527.402,294.925 527.637,294.100 527.741 C 292.550 527.937,315.369 527.682,328.374 527.358 C 332.819 527.248,335.957 527.002,336.272 526.740 C 336.560 526.501,337.157 526.400,337.598 526.515 C 338.039 526.631,338.400 526.556,338.400 526.349 C 338.400 526.142,338.928 525.457,339.573 524.826 C 340.218 524.196,340.624 523.557,340.474 523.407 C 340.324 523.257,340.481 522.924,340.823 522.667 C 341.519 522.145,344.783 517.923,345.395 516.754 C 345.612 516.339,345.927 516.000,346.095 516.000 C 346.263 516.000,346.400 515.835,346.400 515.634 C 346.400 515.433,346.750 514.848,347.178 514.334 C 349.469 511.583,350.276 510.487,350.810 509.404 C 351.135 508.746,352.075 507.559,352.900 506.766 C 353.725 505.973,354.400 505.116,354.400 504.862 C 354.400 504.608,354.580 504.400,354.800 504.400 C 355.020 504.400,355.200 504.139,355.200 503.820 C 355.200 503.501,355.425 503.096,355.701 502.920 C 355.976 502.744,356.432 502.150,356.715 501.600 C 356.997 501.050,357.942 499.827,358.814 498.883 C 359.686 497.938,360.400 497.027,360.400 496.858 C 360.400 496.689,360.741 496.185,361.157 495.738 C 361.574 495.291,362.188 494.402,362.522 493.762 C 363.421 492.040,365.443 490.254,366.176 490.535 C 366.567 490.685,366.800 490.555,366.800 490.187 C 366.800 489.864,366.987 489.600,367.216 489.600 C 368.022 489.600,370.000 487.841,370.000 487.125 C 370.000 486.726,370.180 486.400,370.400 486.400 C 370.620 486.400,370.800 485.588,370.800 484.595 C 370.800 483.602,371.018 482.440,371.285 482.013 C 371.552 481.586,371.656 481.122,371.517 480.983 C 370.643 480.110,362.400 479.582,362.400 480.400 C 362.400 480.620,362.130 480.800,361.800 480.800 C 361.313 480.800,361.200 480.149,361.200 477.343 L 361.200 473.885 364.800 474.157 C 367.754 474.380,368.400 474.328,368.400 473.867 C 368.400 472.778,375.438 472.313,375.846 473.375 C 376.255 474.441,377.139 473.632,376.831 472.473 C 376.497 471.217,373.838 470.832,365.800 470.879 C 361.573 470.903,361.395 470.870,361.269 470.030 C 361.083 468.784,361.945 467.900,363.070 468.182 C 363.714 468.343,364.000 468.242,364.000 467.851 C 364.000 467.541,364.450 467.174,365.000 467.036 C 365.581 466.890,366.002 466.495,366.005 466.092 C 366.008 465.712,366.119 464.995,366.252 464.500 C 366.429 463.842,366.322 463.600,365.854 463.600 C 365.051 463.600,364.558 461.774,365.164 461.044 C 365.518 460.616,365.434 460.450,364.775 460.278 C 364.128 460.108,363.961 459.795,364.053 458.919 C 364.119 458.294,363.881 457.365,363.524 456.856 C 363.062 456.196,362.968 455.610,363.195 454.817 C 363.454 453.913,363.390 453.712,362.857 453.752 C 362.061 453.810,361.753 452.008,362.365 450.866 C 362.702 450.236,362.650 450.102,362.089 450.146 C 361.510 450.191,361.401 449.835,361.409 447.923 C 361.417 446.013,361.295 445.613,360.653 445.446 C 360.025 445.281,359.928 444.997,360.114 443.854 C 360.281 442.823,360.181 442.401,359.726 442.227 C 359.290 442.059,359.160 441.591,359.276 440.596 C 359.385 439.669,359.274 439.200,358.947 439.200 C 358.226 439.200,357.952 437.962,358.359 436.542 C 358.656 435.509,358.606 435.311,358.057 435.352 C 357.539 435.390,357.407 435.043,357.433 433.718 C 357.451 432.792,357.316 432.128,357.132 432.242 C 356.590 432.577,356.000 430.501,356.263 429.183 C 356.444 428.280,356.322 427.831,355.791 427.443 C 355.252 427.049,355.138 426.609,355.328 425.660 C 355.520 424.702,355.438 424.400,354.990 424.400 C 354.419 424.400,354.231 423.754,354.380 422.297 C 354.419 421.910,354.170 421.313,353.826 420.968 C 353.482 420.624,353.200 419.826,353.200 419.195 C 353.200 418.564,353.008 417.928,352.773 417.783 C 352.538 417.638,352.398 416.912,352.462 416.169 C 352.544 415.217,352.358 414.657,351.830 414.272 C 351.104 413.740,351.103 412.961,351.826 411.077 C 351.981 410.673,351.820 410.499,351.327 410.540 C 350.703 410.592,350.608 410.304,350.655 408.500 C 350.694 406.999,350.559 406.400,350.182 406.400 C 349.524 406.400,349.067 405.050,349.385 404.047 C 349.541 403.557,349.393 403.206,348.962 403.041 C 348.435 402.838,348.352 402.462,348.555 401.193 C 348.757 399.926,348.686 399.600,348.205 399.600 C 347.796 399.600,347.600 399.201,347.600 398.371 C 347.600 397.696,347.312 396.854,346.959 396.502 C 346.523 396.066,346.385 395.445,346.529 394.562 C 346.680 393.627,346.569 393.197,346.133 393.030 C 345.668 392.851,345.558 392.286,345.663 390.618 C 345.780 388.759,345.690 388.411,345.051 388.244 C 344.433 388.083,344.347 387.808,344.560 386.671 C 344.755 385.635,344.668 385.235,344.209 385.059 C 343.845 384.919,343.600 384.327,343.600 383.584 C 343.600 382.901,343.330 382.073,343.000 381.743 C 342.316 381.059,342.206 379.767,342.800 379.400 C 343.493 378.972,343.235 378.400,342.349 378.400 C 341.580 378.400,341.522 378.246,341.754 376.800 C 341.957 375.526,341.886 375.200,341.405 375.200 C 340.654 375.200,340.444 373.473,340.950 371.458 C 341.140 370.701,341.041 370.502,340.496 370.545 C 339.999 370.584,339.767 370.257,339.686 369.400 C 339.623 368.740,339.376 367.810,339.136 367.333 C 338.896 366.855,338.779 365.923,338.877 365.260 C 339.015 364.318,338.884 364.011,338.278 363.852 C 337.624 363.681,337.544 363.424,337.769 362.225 C 337.987 361.061,337.916 360.800,337.378 360.800 C 336.843 360.800,336.746 360.462,336.863 359.000 C 336.958 357.795,336.848 357.200,336.530 357.200 C 335.853 357.200,335.494 355.792,335.808 354.363 C 336.006 353.460,335.901 353.016,335.404 352.652 C 334.968 352.334,334.779 351.745,334.866 350.980 C 334.951 350.233,334.736 349.536,334.280 349.080 C 333.818 348.618,333.651 348.069,333.816 347.550 C 333.985 347.017,333.834 346.567,333.374 346.231 C 332.840 345.840,332.732 345.376,332.913 344.260 C 333.101 343.100,333.021 342.800,332.522 342.800 C 332.019 342.800,331.938 342.477,332.113 341.170 C 332.284 339.898,332.212 339.586,331.786 339.750 C 331.092 340.016,330.688 338.785,331.027 337.434 C 331.230 336.626,331.138 336.400,330.606 336.400 C 330.032 336.400,329.947 336.058,330.063 334.199 C 330.154 332.735,330.047 331.999,329.743 331.999 C 329.094 332.000,328.758 330.908,329.049 329.748 C 329.222 329.057,329.085 328.604,328.594 328.245 C 328.093 327.879,327.944 327.366,328.076 326.465 C 328.198 325.635,328.094 325.200,327.774 325.200 C 327.118 325.200,326.803 324.276,327.087 323.188 C 327.244 322.587,327.097 322.174,326.631 321.913 C 326.077 321.603,325.995 321.211,326.215 319.913 C 326.397 318.835,326.349 318.384,326.071 318.556 C 325.237 319.072,324.777 316.763,325.353 314.948 C 325.561 314.293,325.426 314.048,324.765 313.875 C 324.046 313.687,323.934 313.419,324.073 312.225 C 324.195 311.178,324.088 310.800,323.667 310.800 C 323.230 310.800,323.145 310.421,323.309 309.200 C 323.464 308.045,323.379 307.600,323.005 307.600 C 322.305 307.600,321.947 306.551,322.244 305.368 C 322.430 304.627,322.327 304.400,321.803 304.400 C 321.239 304.400,321.144 304.088,321.261 302.621 C 321.375 301.188,321.266 300.806,320.701 300.658 C 319.919 300.454,319.800 299.292,320.362 297.334 C 320.675 296.241,320.615 296.045,319.913 295.861 C 319.265 295.692,319.138 295.402,319.282 294.425 C 319.405 293.583,319.295 293.200,318.931 293.200 C 318.442 293.200,318.200 292.173,318.379 290.863 C 318.419 290.568,318.142 290.100,317.764 289.823 C 317.259 289.454,317.141 288.994,317.321 288.096 C 317.502 287.189,317.401 286.809,316.931 286.629 C 316.448 286.443,316.346 286.015,316.505 284.828 C 316.683 283.505,316.592 283.239,315.903 283.059 C 315.174 282.868,315.118 282.638,315.359 280.823 C 315.587 279.106,315.528 278.800,314.972 278.800 C 314.448 278.800,314.347 278.478,314.469 277.200 C 314.568 276.158,314.458 275.600,314.153 275.600 C 313.511 275.600,313.154 274.524,313.430 273.422 C 313.585 272.805,313.455 272.430,313.030 272.267 C 312.683 272.134,312.400 271.564,312.400 270.998 C 312.400 270.434,312.125 269.552,311.789 269.040 C 311.337 268.349,311.278 267.846,311.564 267.094 C 311.892 266.232,311.826 266.048,311.119 265.863 C 310.418 265.680,310.323 265.428,310.514 264.254 C 310.680 263.228,310.580 262.801,310.133 262.630 C 309.668 262.451,309.558 261.886,309.663 260.218 C 309.780 258.359,309.690 258.011,309.051 257.844 C 308.464 257.691,308.342 257.377,308.487 256.388 C 308.608 255.562,308.487 255.055,308.136 254.920 C 307.841 254.807,307.594 254.149,307.587 253.457 C 307.580 252.766,307.310 251.851,306.987 251.424 C 306.664 250.996,306.400 250.242,306.400 249.747 C 306.400 249.252,306.199 248.723,305.954 248.572 C 305.688 248.407,305.592 247.673,305.716 246.748 C 305.865 245.640,305.777 245.200,305.405 245.200 C 304.676 245.200,304.377 243.665,304.769 241.934 C 305.059 240.651,305.000 240.441,304.296 240.257 C 303.636 240.084,303.535 239.826,303.735 238.823 C 303.920 237.901,303.835 237.600,303.390 237.600 C 302.971 237.600,302.800 237.149,302.800 236.043 C 302.800 234.994,302.594 234.407,302.170 234.244 C 301.753 234.084,301.580 233.612,301.660 232.851 C 301.727 232.218,301.540 231.409,301.245 231.054 C 300.945 230.693,300.786 229.875,300.885 229.204 C 300.999 228.427,300.888 228.000,300.574 228.000 C 299.903 228.000,299.520 226.234,299.831 224.576 C 300.045 223.436,299.970 223.200,299.392 223.200 C 298.809 223.200,298.730 222.937,298.909 221.600 C 299.063 220.450,298.979 220.000,298.609 220.000 C 297.950 220.000,297.601 218.699,298.047 217.902 C 298.295 217.459,298.170 217.233,297.595 217.083 C 296.988 216.924,296.800 216.535,296.800 215.437 C 296.800 214.647,296.620 214.000,296.400 214.000 C 296.180 214.000,296.000 213.357,296.000 212.571 C 296.000 211.786,295.714 210.857,295.364 210.507 C 294.979 210.121,294.793 209.430,294.893 208.751 C 294.993 208.063,294.853 207.552,294.528 207.428 C 294.180 207.294,294.000 206.485,294.000 205.055 C 294.000 203.427,293.839 202.824,293.354 202.638 C 292.717 202.393,292.726 201.479,293.380 199.929 C 293.609 199.388,293.493 199.303,292.781 199.489 C 291.970 199.701,291.912 199.601,292.069 198.260 C 292.181 197.301,292.076 196.800,291.762 196.800 C 291.112 196.800,290.752 195.730,291.030 194.622 C 291.190 193.985,291.054 193.629,290.579 193.447 C 290.055 193.246,289.949 192.872,290.119 191.824 C 290.271 190.887,290.171 190.398,289.801 190.256 C 289.135 190.000,288.877 188.550,289.246 187.137 C 289.466 186.291,289.367 186.032,288.762 185.874 C 288.194 185.726,288.000 185.315,288.000 184.261 C 288.000 183.483,287.820 182.736,287.600 182.600 C 287.380 182.464,287.200 181.811,287.200 181.148 C 287.200 180.485,286.930 179.673,286.600 179.343 C 286.270 179.013,286.000 178.316,286.000 177.795 C 286.000 177.274,285.799 176.723,285.554 176.572 C 285.288 176.407,285.192 175.673,285.316 174.748 C 285.471 173.595,285.382 173.200,284.970 173.200 C 284.190 173.200,283.866 171.549,284.322 169.899 C 284.649 168.712,284.609 168.512,284.053 168.552 C 283.559 168.588,283.400 168.243,283.400 167.138 C 283.400 166.333,283.263 165.760,283.097 165.863 C 282.604 166.169,282.062 164.262,282.438 163.544 C 282.695 163.052,282.569 162.833,281.934 162.667 C 281.212 162.478,281.122 162.237,281.319 161.023 C 281.494 159.945,281.410 159.600,280.975 159.600 C 280.573 159.600,280.400 159.130,280.400 158.043 C 280.400 157.028,280.191 156.405,279.800 156.255 C 279.116 155.993,278.990 153.939,279.590 152.818 C 279.903 152.234,279.812 152.044,279.134 151.867 C 278.417 151.679,278.322 151.434,278.513 150.261 C 278.701 149.099,278.605 148.842,277.914 148.662 C 277.241 148.486,277.134 148.230,277.328 147.259 C 277.499 146.403,277.395 146.007,276.953 145.837 C 276.555 145.685,276.382 145.200,276.459 144.462 C 276.528 143.801,276.304 143.047,275.925 142.668 C 275.532 142.275,275.361 141.672,275.495 141.156 C 275.641 140.599,275.489 140.170,275.060 139.930 C 274.649 139.700,274.400 139.048,274.400 138.204 C 274.400 137.458,274.199 136.723,273.954 136.572 C 273.680 136.402,273.580 135.544,273.695 134.348 C 273.832 132.930,273.743 132.400,273.368 132.400 C 272.746 132.400,272.293 131.144,272.614 130.308 C 272.747 129.962,272.579 129.601,272.223 129.464 C 271.844 129.319,271.600 128.739,271.600 127.984 C 271.600 127.301,271.330 126.473,271.000 126.142 C 270.638 125.781,270.491 125.178,270.629 124.625 C 270.788 123.992,270.655 123.630,270.200 123.455 C 269.741 123.279,269.579 122.830,269.667 121.985 C 269.737 121.315,269.600 120.640,269.362 120.484 C 268.700 120.049,268.429 118.493,268.794 117.219 C 269.071 116.254,268.995 116.040,268.313 115.861 C 267.668 115.693,267.538 115.401,267.679 114.440 C 267.792 113.670,267.665 113.157,267.328 113.028 C 267.038 112.916,266.800 112.299,266.800 111.655 C 266.800 110.944,266.545 110.388,266.149 110.236 C 265.653 110.046,265.552 109.653,265.724 108.593 C 265.900 107.505,265.814 107.200,265.331 107.200 C 264.860 107.200,264.751 106.867,264.876 105.800 C 264.988 104.844,264.877 104.400,264.527 104.400 C 263.881 104.400,263.437 102.702,263.754 101.442 C 263.920 100.779,263.801 100.409,263.367 100.243 C 262.955 100.085,262.781 99.610,262.859 98.862 C 262.931 98.175,262.699 97.442,262.276 97.019 C 261.868 96.610,261.670 96.010,261.804 95.588 C 261.947 95.136,261.778 94.715,261.357 94.480 C 260.848 94.195,260.742 93.790,260.930 92.850 C 261.126 91.871,261.043 91.600,260.546 91.600 C 260.060 91.600,259.950 91.281,260.073 90.225 C 260.201 89.125,260.079 88.809,259.462 88.648 C 258.802 88.475,258.720 88.184,258.896 86.623 C 259.058 85.184,258.976 84.800,258.507 84.800 C 258.065 84.800,257.954 84.447,258.073 83.425 C 258.198 82.356,258.074 82.008,257.517 81.862 C 257.066 81.744,256.800 81.299,256.800 80.661 C 256.800 80.103,256.602 79.525,256.360 79.375 C 256.115 79.224,256.018 78.610,256.141 77.993 C 256.316 77.121,256.196 76.840,255.582 76.679 C 255.065 76.544,254.800 76.131,254.800 75.461 C 254.800 74.903,254.604 74.326,254.365 74.178 C 254.126 74.031,254.023 73.557,254.135 73.125 C 254.256 72.665,254.031 72.031,253.592 71.592 C 253.003 71.003,252.916 70.590,253.183 69.658 C 253.473 68.649,253.403 68.442,252.709 68.260 C 252.129 68.109,251.954 67.818,252.103 67.249 C 252.226 66.778,252.084 66.364,251.756 66.238 C 251.450 66.121,251.200 65.724,251.200 65.357 C 251.200 64.989,250.885 64.455,250.500 64.171 C 249.939 63.757,249.899 63.553,250.300 63.147 C 251.010 62.427,250.974 58.000,250.258 58.000 C 249.397 58.000,249.206 54.063,249.203 36.300 C 249.200 21.034,249.154 19.954,248.467 19.267 C 247.812 18.612,245.082 18.261,244.569 18.767 M251.087 74.678 C 250.971 75.288,251.109 75.744,251.449 75.874 C 251.752 75.991,252.000 76.619,252.000 77.271 C 252.000 77.924,252.279 78.737,252.621 79.078 C 253.031 79.488,253.160 80.072,253.000 80.799 C 252.823 81.605,252.935 81.966,253.418 82.151 C 253.936 82.350,254.047 82.831,253.938 84.402 C 253.845 85.752,253.954 86.400,254.273 86.400 C 254.942 86.400,255.367 87.993,254.840 88.520 C 254.162 89.198,254.315 89.600,255.252 89.600 C 256.003 89.600,256.078 89.767,255.877 91.000 C 255.714 92.008,255.798 92.400,256.178 92.400 C 256.848 92.400,257.203 93.694,256.753 94.498 C 256.502 94.946,256.638 95.169,257.261 95.332 C 257.988 95.522,258.078 95.761,257.881 96.977 C 257.706 98.055,257.790 98.400,258.225 98.400 C 258.604 98.400,258.804 98.842,258.813 99.700 C 258.820 100.415,259.090 101.349,259.413 101.776 C 260.122 102.714,260.183 104.857,259.520 105.520 C 259.147 105.893,259.242 106.000,259.951 106.000 C 260.747 106.000,260.846 106.175,260.741 107.391 C 260.654 108.405,260.835 108.940,261.411 109.366 C 262.084 109.865,262.126 110.072,261.700 110.770 C 261.126 111.710,261.074 112.020,261.500 111.953 C 262.626 111.775,262.879 112.074,262.724 113.400 C 262.618 114.309,262.728 114.800,263.038 114.800 C 263.737 114.800,264.058 115.945,263.599 116.803 C 263.063 117.804,263.095 118.000,263.792 118.000 C 264.530 118.000,264.971 119.643,264.657 121.215 C 264.473 122.135,264.564 122.400,265.063 122.400 C 265.579 122.400,265.664 122.707,265.495 123.965 C 265.321 125.265,265.414 125.563,266.043 125.727 C 266.893 125.949,267.050 127.190,266.320 127.920 C 265.947 128.293,266.045 128.400,266.764 128.400 C 267.581 128.400,267.669 128.559,267.527 129.775 C 267.399 130.872,267.522 131.191,268.132 131.351 C 268.769 131.517,268.855 131.784,268.640 132.929 C 268.442 133.981,268.530 134.364,269.013 134.550 C 269.492 134.733,269.615 135.252,269.522 136.696 C 269.426 138.197,269.566 138.738,270.186 139.253 C 270.862 139.815,270.905 140.052,270.494 140.953 C 270.062 141.902,270.096 142.000,270.861 142.000 C 271.598 142.000,271.677 142.173,271.483 143.369 C 271.319 144.378,271.422 144.800,271.875 144.973 C 272.295 145.135,272.435 145.579,272.318 146.377 C 272.185 147.280,272.322 147.591,272.922 147.748 C 273.562 147.915,273.655 148.183,273.450 149.275 C 273.314 150.004,273.136 151.230,273.054 152.000 C 272.972 152.770,272.983 152.905,273.078 152.300 C 273.427 150.076,274.488 150.985,274.337 153.380 C 274.223 155.190,274.319 155.591,274.900 155.743 C 275.715 155.955,275.871 157.824,275.100 158.135 C 274.825 158.246,275.029 158.351,275.553 158.368 C 276.426 158.397,276.488 158.530,276.295 159.965 C 276.118 161.287,276.209 161.561,276.881 161.737 C 277.542 161.910,277.629 162.155,277.400 163.201 C 277.193 164.142,277.292 164.579,277.796 164.948 C 278.232 165.266,278.421 165.855,278.334 166.620 C 278.260 167.269,278.433 167.983,278.718 168.208 C 279.325 168.686,279.454 169.779,279.077 171.254 C 278.857 172.116,278.964 172.350,279.664 172.533 C 280.462 172.741,280.503 172.934,280.275 175.378 C 280.066 177.610,280.125 178.000,280.666 178.000 C 281.186 178.000,281.268 178.357,281.113 179.964 C 280.959 181.564,281.069 182.052,281.702 182.595 C 282.486 183.266,282.533 184.852,281.818 186.500 C 281.580 187.049,281.708 187.200,282.412 187.200 C 283.271 187.200,283.301 187.310,283.101 189.800 C 282.939 191.810,283.014 192.400,283.428 192.400 C 284.196 192.400,284.543 194.821,284.036 196.645 C 283.477 198.660,283.487 198.800,284.192 198.800 C 285.105 198.800,285.338 200.520,285.067 205.258 C 284.868 208.740,284.925 209.600,285.354 209.600 C 286.107 209.600,286.434 212.944,285.984 216.056 C 285.481 219.532,285.507 220.000,286.200 220.000 C 286.960 220.000,286.886 217.766,286.998 244.000 C 287.099 267.759,287.051 269.200,286.155 269.200 C 285.506 269.200,285.486 269.699,285.992 273.199 C 286.452 276.382,286.103 280.400,285.368 280.400 C 284.958 280.400,284.898 281.441,285.083 285.342 C 285.344 290.885,285.109 292.604,284.139 292.232 C 283.486 291.981,283.494 292.298,284.226 295.897 C 284.571 297.593,284.107 300.000,283.435 300.000 C 283.029 300.000,282.953 300.644,283.107 302.792 C 283.277 305.171,283.205 305.623,282.623 305.846 C 282.055 306.064,281.984 306.433,282.204 308.031 C 282.499 310.173,282.199 311.600,281.454 311.600 C 281.098 311.600,281.008 312.319,281.127 314.195 C 281.261 316.300,281.173 316.836,280.656 317.034 C 280.135 317.234,280.064 317.697,280.263 319.601 C 280.540 322.250,280.223 324.000,279.467 324.000 C 279.081 324.000,278.993 324.613,279.123 326.400 C 279.266 328.390,279.189 328.800,278.667 328.800 C 278.147 328.800,278.079 329.147,278.274 330.792 C 278.468 332.436,278.391 332.829,277.828 333.044 C 277.292 333.250,277.199 333.612,277.392 334.753 C 277.559 335.743,277.444 336.453,277.031 337.000 C 276.698 337.440,276.420 338.571,276.413 339.513 C 276.405 340.600,276.196 341.303,275.842 341.439 C 275.440 341.594,275.343 342.100,275.497 343.250 C 275.676 344.582,275.586 344.878,274.956 345.043 C 274.311 345.212,274.200 345.629,274.200 347.883 C 274.200 351.091,273.318 351.940,273.118 348.926 L 272.990 347.000 272.795 349.062 C 272.688 350.197,272.726 351.047,272.880 350.951 C 273.261 350.715,273.745 353.442,273.416 353.974 C 273.271 354.208,272.906 354.400,272.604 354.400 C 272.197 354.400,272.136 354.684,272.366 355.500 C 272.707 356.708,272.517 357.646,271.843 358.084 C 271.602 358.240,271.464 358.928,271.536 359.613 C 271.639 360.594,271.492 360.903,270.843 361.073 C 270.169 361.249,270.094 361.428,270.432 362.059 C 270.932 362.993,270.553 364.400,269.802 364.400 C 269.382 364.400,269.309 364.900,269.485 366.600 C 269.694 368.624,269.646 368.800,268.893 368.800 C 268.143 368.800,268.111 368.917,268.503 370.196 C 268.857 371.348,268.816 371.720,268.266 372.327 C 267.900 372.732,267.600 373.549,267.600 374.144 C 267.600 374.739,267.338 375.326,267.017 375.449 C 266.611 375.605,266.505 376.023,266.666 376.830 C 266.835 377.677,266.724 378.054,266.249 378.237 C 265.827 378.399,265.600 378.960,265.600 379.843 C 265.600 380.775,265.414 381.200,265.008 381.200 C 264.535 381.200,264.466 381.567,264.665 383.022 C 264.891 384.668,264.829 384.867,264.035 385.075 C 263.415 385.237,263.234 385.497,263.423 385.953 C 264.111 387.615,264.092 388.051,263.326 388.251 C 262.722 388.409,262.585 388.718,262.718 389.623 C 262.838 390.439,262.696 390.865,262.248 391.037 C 261.817 391.202,261.679 391.576,261.829 392.171 C 261.965 392.717,261.810 393.260,261.426 393.579 C 261.082 393.864,260.800 394.532,260.800 395.062 C 260.800 395.591,260.525 396.131,260.188 396.260 C 259.792 396.412,259.664 396.770,259.824 397.276 C 260.161 398.337,259.702 400.000,259.073 400.000 C 258.719 400.000,258.613 400.452,258.731 401.460 C 258.884 402.772,258.818 402.898,258.080 402.705 C 257.333 402.510,257.300 402.581,257.713 403.489 C 258.090 404.315,258.050 404.574,257.484 404.988 C 257.108 405.263,256.800 405.948,256.800 406.511 C 256.800 407.073,256.579 407.607,256.309 407.697 C 256.038 407.787,255.813 408.297,255.809 408.830 C 255.803 409.499,255.586 409.783,255.111 409.746 C 254.564 409.704,254.502 409.843,254.811 410.420 C 255.322 411.376,255.314 411.429,254.525 412.218 C 254.154 412.589,253.839 413.457,253.825 414.147 C 253.806 415.086,253.625 415.386,253.100 415.344 C 252.300 415.281,252.200 415.640,252.840 416.280 C 253.325 416.765,252.965 418.400,252.373 418.400 C 252.168 418.400,252.000 418.749,252.000 419.176 C 252.000 419.603,251.820 420.064,251.600 420.200 C 251.380 420.336,251.200 420.813,251.200 421.261 C 251.200 421.735,250.870 422.161,250.410 422.282 C 249.785 422.445,249.701 422.641,250.009 423.216 C 250.290 423.742,250.231 424.111,249.799 424.544 C 249.470 424.873,249.200 425.611,249.200 426.184 C 249.200 426.757,248.975 427.312,248.700 427.417 C 248.425 427.523,248.173 428.081,248.139 428.657 C 248.083 429.615,247.451 430.379,246.700 430.394 C 246.340 430.401,246.293 407.837,246.649 406.056 C 246.785 405.373,247.047 404.906,247.231 405.019 C 247.414 405.132,247.456 387.984,247.324 366.913 C 247.093 330.217,247.302 314.400,248.018 314.400 C 248.200 314.400,248.433 314.985,248.536 315.700 C 248.639 316.415,248.650 309.980,248.559 301.400 C 247.831 232.184,248.039 186.718,249.086 186.070 C 249.397 185.877,249.505 172.133,249.461 137.934 C 249.404 92.829,249.489 88.546,250.416 90.012 C 250.961 90.874,250.915 76.163,250.369 75.142 C 249.869 74.207,250.189 73.023,250.835 73.422 C 251.077 73.571,251.191 74.137,251.087 74.678 M237.771 447.029 C 238.644 447.901,238.557 448.534,237.600 448.284 C 236.691 448.046,236.585 448.466,237.274 449.570 C 237.671 450.205,237.572 450.561,236.674 451.738 C 236.083 452.513,235.600 453.299,235.600 453.484 C 235.600 453.670,235.285 454.102,234.900 454.444 C 234.515 454.786,233.733 455.591,233.162 456.233 C 231.805 457.760,230.089 459.200,229.626 459.200 C 229.424 459.200,228.887 459.672,228.434 460.248 C 227.868 460.967,227.357 461.230,226.805 461.085 C 226.305 460.955,226.000 461.071,226.000 461.391 C 226.000 462.120,224.058 463.308,223.326 463.027 C 222.977 462.893,222.817 462.532,222.952 462.181 C 223.094 461.811,222.913 461.473,222.493 461.325 C 222.112 461.191,221.440 460.683,221.000 460.197 C 218.791 457.755,216.863 455.538,215.600 453.987 C 214.830 453.041,213.747 451.802,213.193 451.233 C 210.735 448.710,210.729 448.724,214.193 449.038 C 216.667 449.262,217.257 449.216,217.010 448.816 C 216.336 447.726,225.902 446.915,227.495 447.926 C 228.208 448.379,230.788 448.001,230.686 447.458 C 230.634 447.181,231.469 446.907,232.800 446.765 C 236.618 446.358,237.128 446.385,237.771 447.029 M177.000 449.800 C 177.000 451.475,176.884 451.791,176.286 451.742 C 175.711 451.695,175.664 451.795,176.046 452.256 C 176.422 452.709,176.362 452.980,175.761 453.557 C 173.912 455.328,172.400 457.601,172.400 458.607 C 172.400 458.947,172.130 459.329,171.800 459.455 C 171.470 459.582,171.200 459.893,171.200 460.147 C 171.200 460.401,170.573 461.327,169.808 462.204 C 169.042 463.082,168.406 463.980,168.394 464.200 C 168.364 464.775,166.945 466.400,166.473 466.400 C 166.254 466.400,166.169 466.760,166.284 467.200 C 166.399 467.640,166.321 468.000,166.111 468.000 C 165.901 468.000,165.523 468.450,165.273 469.000 C 165.022 469.550,164.543 470.000,164.209 470.000 C 163.384 470.000,163.363 467.266,164.185 466.951 C 164.658 466.769,164.723 466.133,164.529 463.612 C 164.257 460.086,164.541 458.400,165.408 458.400 C 166.098 458.400,166.128 458.001,165.638 455.355 C 165.102 452.458,165.568 450.301,166.804 449.957 C 167.352 449.804,167.575 449.662,167.300 449.640 C 165.142 449.468,167.527 449.015,170.299 449.070 C 172.225 449.108,173.485 449.050,173.100 448.941 C 171.307 448.430,173.098 447.641,175.800 447.751 C 176.967 447.799,177.000 447.855,177.000 449.800 M205.700 447.861 C 208.752 448.149,209.244 448.672,206.700 448.925 C 205.765 449.018,206.092 449.051,207.427 448.999 C 209.821 448.905,211.200 449.397,211.200 450.344 C 211.200 450.595,211.380 450.800,211.600 450.800 C 211.820 450.800,212.000 451.076,212.000 451.413 C 212.000 451.749,212.270 452.129,212.600 452.255 C 212.930 452.382,213.200 452.812,213.200 453.211 C 213.200 453.610,214.007 454.715,214.993 455.668 C 215.980 456.621,216.790 457.645,216.793 457.944 C 216.800 458.464,217.803 459.739,219.300 461.128 C 219.685 461.485,220.000 461.939,220.000 462.136 C 220.000 462.333,220.540 463.109,221.200 463.861 C 221.860 464.613,222.400 465.382,222.400 465.570 C 222.400 466.391,183.210 466.680,181.553 465.871 C 181.083 465.642,180.846 465.781,180.690 466.377 C 180.427 467.382,179.275 467.461,178.906 466.500 C 178.680 465.913,178.599 465.961,178.402 466.800 C 178.254 467.432,177.842 467.847,177.284 467.928 C 176.798 467.998,176.400 468.215,176.400 468.409 C 176.400 468.603,175.725 469.080,174.900 469.468 C 174.075 469.856,173.220 470.312,173.000 470.481 C 170.798 472.171,170.036 472.948,169.638 473.909 C 169.135 475.122,166.551 476.189,164.738 475.933 C 163.460 475.752,163.336 474.405,164.482 473.151 C 164.987 472.599,165.832 471.349,166.359 470.373 C 166.887 469.398,167.562 468.316,167.859 467.969 C 168.157 467.621,168.405 467.171,168.412 466.969 C 168.429 466.421,170.720 464.000,171.221 464.000 C 171.477 464.000,171.546 463.661,171.391 463.172 C 171.195 462.555,171.329 462.291,171.918 462.137 C 172.417 462.007,172.642 461.683,172.531 461.257 C 172.431 460.877,172.801 460.162,173.377 459.621 C 173.940 459.093,174.400 458.422,174.400 458.130 C 174.400 457.839,174.580 457.600,174.800 457.600 C 175.020 457.600,175.200 457.349,175.200 457.043 C 175.200 456.736,175.489 456.375,175.842 456.239 C 176.216 456.096,176.385 455.739,176.248 455.381 C 176.115 455.035,176.271 454.671,176.607 454.542 C 176.933 454.417,177.200 454.064,177.200 453.757 C 177.200 453.451,177.489 453.200,177.843 453.200 C 178.235 453.200,178.400 452.978,178.267 452.629 C 178.146 452.315,178.307 451.843,178.624 451.580 C 178.965 451.297,179.200 450.387,179.200 449.351 L 179.200 447.600 191.100 447.603 C 197.645 447.604,204.215 447.720,205.700 447.861 M73.464 453.022 C 73.595 453.364,74.084 453.614,74.551 453.578 C 76.197 453.449,76.800 453.606,76.800 454.162 C 76.800 454.587,77.191 454.671,78.400 454.509 C 79.857 454.314,80.000 454.375,80.000 455.196 C 80.000 455.940,80.102 456.013,80.582 455.615 C 81.248 455.062,82.000 455.378,82.000 456.211 C 82.000 456.554,82.241 456.682,82.615 456.539 C 84.215 455.925,85.330 458.451,84.100 459.905 C 83.715 460.360,83.085 461.110,82.700 461.571 C 82.315 462.032,82.000 462.677,82.000 463.005 C 82.000 463.332,81.730 463.600,81.400 463.600 C 80.479 463.600,80.635 465.463,81.576 465.710 C 82.254 465.887,82.292 465.814,81.876 465.132 C 81.485 464.491,81.525 464.258,82.100 463.832 C 82.485 463.546,82.800 463.083,82.800 462.802 C 82.800 462.020,84.890 460.401,85.900 460.400 C 86.395 460.400,86.800 460.220,86.800 460.000 C 86.800 459.780,87.160 459.600,87.600 459.600 C 88.040 459.600,88.400 459.780,88.400 460.000 C 88.400 460.220,88.831 460.400,89.358 460.400 C 89.885 460.400,90.740 460.847,91.258 461.393 C 91.776 461.939,92.412 462.389,92.672 462.393 C 92.931 462.397,93.808 463.027,94.620 463.793 C 95.747 464.856,96.251 465.096,96.748 464.805 C 97.140 464.576,97.200 464.419,96.900 464.412 C 96.625 464.405,96.400 464.106,96.400 463.748 C 96.400 463.226,96.679 463.141,97.800 463.323 C 98.856 463.494,99.200 463.408,99.200 462.975 C 99.200 462.659,99.571 462.400,100.024 462.400 C 100.537 462.400,100.741 462.571,100.566 462.854 C 100.412 463.104,100.244 463.689,100.194 464.154 C 100.143 464.619,100.079 465.131,100.051 465.290 C 100.023 465.450,99.460 465.472,98.800 465.340 C 97.885 465.157,97.600 465.245,97.600 465.713 C 97.600 466.128,97.857 466.258,98.400 466.116 C 100.239 465.635,98.700 468.313,94.871 472.256 C 94.144 473.005,91.403 472.946,90.622 472.164 C 90.099 471.641,89.191 471.553,85.493 471.664 L 81.000 471.800 80.882 468.873 C 80.799 466.805,80.622 465.994,80.282 466.110 C 80.017 466.200,79.860 466.682,79.932 467.181 C 80.163 468.754,79.657 469.899,78.618 470.160 C 77.983 470.319,77.706 470.610,77.844 470.972 C 78.168 471.816,74.397 472.162,68.428 471.835 C 65.663 471.683,62.950 471.555,62.400 471.550 C 61.850 471.545,61.625 471.449,61.900 471.337 C 62.194 471.217,62.400 470.405,62.400 469.367 C 62.400 468.045,62.555 467.600,63.014 467.600 C 63.518 467.600,63.581 467.247,63.365 465.621 C 63.060 463.318,63.420 461.445,64.117 461.714 C 64.467 461.849,64.562 461.310,64.463 459.750 C 64.351 457.986,64.441 457.600,64.968 457.600 C 65.489 457.600,65.563 457.309,65.362 456.051 C 64.901 453.171,65.851 452.400,69.859 452.400 C 72.535 452.400,73.274 452.528,73.464 453.022 M62.203 456.468 C 63.355 457.560,63.639 460.657,62.623 461.047 C 62.182 461.216,62.101 461.731,62.278 463.226 C 62.465 464.810,62.385 465.231,61.855 465.434 C 61.363 465.623,61.200 466.211,61.200 467.796 C 61.200 470.046,60.849 470.381,58.476 470.395 C 57.962 470.398,57.663 470.578,57.800 470.801 C 58.460 471.868,53.571 472.407,52.257 471.412 C 51.632 470.938,51.406 458.221,51.970 455.241 C 52.106 454.521,61.315 455.625,62.203 456.468 M238.365 459.568 L 239.615 460.735 239.508 469.668 L 239.400 478.600 238.200 478.635 C 237.037 478.670,232.800 475.029,232.800 473.995 C 232.800 473.792,231.631 472.495,230.201 471.113 C 228.772 469.731,227.602 468.294,227.601 467.920 C 227.601 467.547,226.970 466.760,226.200 466.173 C 224.614 464.964,224.478 464.556,225.543 464.218 C 225.952 464.088,227.104 463.176,228.103 462.191 C 229.102 461.206,230.213 460.400,230.572 460.400 C 230.931 460.400,231.329 460.130,231.455 459.800 C 231.582 459.470,231.936 459.200,232.243 459.200 C 232.549 459.200,232.800 459.020,232.800 458.800 C 232.800 457.784,237.089 458.376,238.365 459.568 M250.646 460.976 C 250.827 461.447,251.623 461.509,255.055 461.314 C 259.102 461.085,259.250 461.106,259.468 461.939 C 259.727 462.929,260.019 462.966,262.708 462.345 C 265.025 461.811,268.400 462.188,268.400 462.981 C 268.400 463.402,269.263 463.476,272.500 463.333 C 276.759 463.145,278.447 463.538,277.200 464.428 C 276.746 464.752,276.942 464.799,278.000 464.622 C 282.917 463.797,287.700 464.068,287.041 465.134 C 286.927 465.318,290.030 465.385,293.936 465.283 C 300.090 465.121,301.125 465.182,301.682 465.739 C 302.404 466.461,303.022 466.500,308.400 466.160 C 312.364 465.909,315.079 466.335,314.888 467.177 C 314.802 467.557,315.490 467.594,317.888 467.335 C 322.323 466.857,329.699 467.099,330.200 467.738 C 330.755 468.447,352.802 468.435,353.400 467.725 C 353.620 467.464,354.700 467.203,355.800 467.146 L 357.800 467.042 357.759 468.467 C 357.728 469.541,357.876 469.880,358.359 469.846 C 358.880 469.809,359.009 470.276,359.047 472.347 L 359.094 474.895 355.547 474.617 C 352.524 474.381,352.000 474.429,352.000 474.945 C 352.000 476.099,347.913 476.252,341.296 475.348 C 339.868 475.153,339.631 475.215,339.830 475.733 C 340.200 476.699,337.923 476.931,330.253 476.710 C 324.387 476.541,323.341 476.601,322.954 477.130 C 322.425 477.855,317.287 478.024,313.491 477.442 C 311.453 477.129,311.211 477.163,311.427 477.727 C 311.801 478.700,310.126 478.945,304.869 478.686 C 301.082 478.499,300.168 478.564,299.817 479.044 C 299.337 479.700,294.066 479.904,290.700 479.396 C 289.126 479.158,288.800 479.216,288.800 479.730 C 288.800 480.564,286.020 480.962,282.401 480.645 C 278.174 480.275,273.655 480.044,274.900 480.261 C 276.121 480.474,276.338 480.985,275.367 481.357 C 274.547 481.672,258.079 481.664,256.900 481.348 C 255.364 480.936,255.905 480.450,258.100 480.270 C 259.255 480.175,257.860 480.164,255.000 480.244 C 252.140 480.325,249.080 480.498,248.200 480.628 L 246.600 480.866 246.732 471.413 C 246.821 465.085,246.723 461.789,246.436 461.443 C 245.794 460.670,246.322 460.400,248.479 460.400 C 249.803 460.400,250.496 460.584,250.646 460.976 M127.705 463.600 C 128.495 464.480,129.347 465.200,129.599 465.200 C 130.161 465.200,131.200 466.198,131.200 466.737 C 131.200 467.374,133.930 470.000,134.593 470.000 C 136.223 470.000,135.152 471.498,133.344 471.746 C 129.125 472.324,107.189 472.037,106.945 471.400 C 106.588 470.470,105.621 470.691,105.200 471.800 C 104.831 472.769,104.704 472.800,101.034 472.800 C 96.737 472.800,96.249 472.489,97.923 470.815 C 98.570 470.168,99.208 469.356,99.341 469.010 C 99.774 467.881,100.776 467.857,101.792 468.953 C 102.325 469.529,103.040 470.000,103.381 470.000 C 103.721 470.000,104.000 470.180,104.000 470.400 C 104.000 470.620,104.270 470.800,104.600 470.800 C 104.930 470.800,105.200 470.620,105.200 470.400 C 105.200 470.180,105.034 470.000,104.832 470.000 C 104.268 470.000,101.200 466.838,101.200 466.257 C 101.200 465.976,101.829 465.038,102.598 464.173 C 104.245 462.319,105.230 462.190,118.634 462.069 L 126.269 462.000 127.705 463.600 M188.662 467.817 C 188.796 468.167,189.267 468.383,189.749 468.317 C 190.799 468.173,191.221 469.864,190.230 470.244 C 189.886 470.376,189.705 470.647,189.828 470.845 C 190.189 471.429,189.596 472.800,188.983 472.800 C 188.565 472.800,188.485 473.124,188.672 474.060 C 188.853 474.965,188.747 475.450,188.293 475.781 C 187.946 476.035,187.694 476.593,187.731 477.021 C 187.785 477.635,187.505 477.828,186.411 477.932 C 184.235 478.139,181.600 477.628,181.600 476.999 C 181.600 476.555,180.606 476.463,176.511 476.524 C 171.116 476.605,170.207 476.250,171.780 474.677 C 172.121 474.336,172.400 473.864,172.400 473.629 C 172.400 473.393,172.572 473.200,172.783 473.200 C 172.993 473.200,173.938 472.482,174.883 471.605 C 175.827 470.728,177.005 470.008,177.500 470.005 C 177.995 470.002,178.400 469.839,178.400 469.643 C 178.400 469.072,179.694 468.734,180.147 469.187 C 180.795 469.835,181.200 469.675,181.200 468.771 C 181.200 468.003,181.356 467.962,183.342 468.210 C 185.100 468.430,185.529 468.363,185.730 467.839 C 186.053 466.997,188.341 466.980,188.662 467.817 M223.229 468.847 C 223.384 469.098,223.712 469.178,223.958 469.026 C 224.204 468.874,224.514 469.031,224.646 469.375 C 224.778 469.719,225.201 470.000,225.587 470.000 C 226.657 470.000,233.600 477.159,233.600 478.262 C 233.600 478.558,233.793 478.800,234.028 478.800 C 234.263 478.800,234.398 479.205,234.328 479.700 C 234.170 480.813,229.786 480.830,228.922 479.721 C 228.531 479.219,227.670 479.136,224.189 479.265 L 219.934 479.423 220.070 477.711 C 220.163 476.532,220.050 476.000,219.703 476.000 C 219.399 476.000,219.177 476.593,219.141 477.500 C 219.108 478.325,219.063 479.360,219.041 479.800 C 218.970 481.184,213.200 481.128,213.200 479.743 C 213.200 479.215,212.825 479.167,210.700 479.429 C 206.786 479.909,202.676 479.707,202.160 479.008 C 201.796 478.515,200.962 478.455,197.318 478.664 C 191.216 479.013,190.945 478.917,190.855 476.373 C 190.793 474.608,190.896 474.300,191.614 474.112 C 192.200 473.959,192.362 473.704,192.162 473.247 C 191.534 471.814,191.528 469.969,192.148 469.023 L 192.785 468.051 207.866 468.222 C 218.543 468.342,223.030 468.525,223.229 468.847 M218.275 471.749 C 217.655 473.363,217.521 476.005,218.070 475.795 C 218.805 475.512,219.641 471.200,218.960 471.200 C 218.699 471.200,218.391 471.447,218.275 471.749 M59.083 473.596 C 59.243 474.207,59.514 474.337,60.246 474.153 C 61.119 473.934,61.200 474.035,61.200 475.357 C 61.200 476.345,61.019 476.800,60.625 476.800 C 60.190 476.800,60.106 477.145,60.281 478.223 C 60.477 479.430,60.386 479.678,59.681 479.863 C 58.981 480.046,58.909 480.236,59.226 481.068 C 59.669 482.235,59.315 484.000,58.637 484.000 C 58.334 484.000,58.217 484.478,58.314 485.314 C 58.526 487.126,57.403 487.677,53.812 487.520 L 51.048 487.400 50.687 486.000 C 49.903 482.966,50.493 474.415,51.544 473.564 C 52.968 472.412,58.780 472.436,59.083 473.596 M372.800 479.000 C 372.800 479.330,372.980 479.600,373.200 479.600 C 373.420 479.600,373.600 479.330,373.600 479.000 C 373.600 478.670,373.420 478.400,373.200 478.400 C 372.980 478.400,372.800 478.670,372.800 479.000 " stroke="none" fill="#fff" fill-rule="evenodd"></path></g></svg>